<svg width="23" height="21" viewBox="0 0 23 21" fill="none" xmlns="http://www.w3.org/2000/svg">
<path d="M22.4464 6.09725H20.7322C19.934 4.38912 18.6652 2.94406 17.0747 1.93166C15.4841 0.919254 13.6378 0.3815 11.7524 0.3815C9.867 0.3815 8.02069 0.919254 6.43015 1.93166C4.83961 2.94406 3.57082 4.38912 2.77266 6.09725H1.05846C0.953411 6.09725 0.852669 6.13898 0.778391 6.21326C0.704113 6.28754 0.662384 6.38828 0.662384 6.49333V14.1138C0.662384 14.2188 0.704113 14.3195 0.778391 14.3938C0.852669 14.4681 0.953411 14.5098 1.05846 14.5098H2.77266C3.57082 16.218 4.83961 17.663 6.43015 18.6754C8.02069 19.6878 9.867 20.2256 11.7524 20.2256C13.6378 20.2256 15.4841 19.6878 17.0747 18.6754C18.6652 17.663 19.934 16.218 20.7322 14.5098H22.4464C22.5514 14.5098 22.6522 14.4681 22.7264 14.3938C22.8007 14.3195 22.8424 14.2188 22.8424 14.1138V6.49333C22.8424 6.38828 22.8007 6.28754 22.7264 6.21326C22.6522 6.13898 22.5514 6.09725 22.4464 6.09725ZM19.8537 6.09725H16.3009C15.8292 4.06342 15.0311 2.45814 14.054 1.47351C15.2908 1.79467 16.4462 2.37226 17.4454 3.16882C18.4445 3.96538 19.265 4.9631 19.8537 6.09725ZM11.7524 1.17289C13.2912 1.17289 14.761 3.13265 15.4886 6.09646H8.01626C8.74384 3.13305 10.2137 1.17407 11.7524 1.17407V1.17289ZM9.45123 1.47311C8.47372 2.45775 7.67564 4.06303 7.20392 6.09646H3.65115C4.23987 4.96246 5.06043 3.96489 6.05957 3.16847C7.05871 2.37205 8.21451 1.79418 9.45123 1.47311ZM3.65075 14.5102H7.20352C7.67524 16.5437 8.47333 18.1489 9.45044 19.1336C8.21372 18.8124 7.05834 18.2347 6.05927 17.4382C5.0602 16.6416 4.23935 15.6443 3.65075 14.5102ZM11.7524 19.433C10.2137 19.433 8.74384 17.4736 8.01626 14.5098H15.4886C14.761 17.474 13.2912 19.433 11.7524 19.433ZM14.0536 19.1332C15.0311 18.1485 15.8292 16.5433 16.3009 14.5098H19.8537C19.265 15.6439 18.4445 16.6416 17.4453 17.438C16.4462 18.2345 15.2903 18.8121 14.0536 19.1332ZM22.0503 13.7181H1.45453V6.889H22.0503V13.7181Z" fill="url(#paint0_linear_92_14)"/>
<path d="M5.8838 7.95167C5.77875 7.95167 5.67801 7.99339 5.60373 8.06767C5.52945 8.14195 5.48773 8.24269 5.48773 8.34774V10.5816L4.28248 8.1703C4.24145 8.09201 4.17553 8.0296 4.09511 7.99291C4.01469 7.95623 3.92435 7.94735 3.83833 7.96769C3.75231 7.98803 3.6755 8.03642 3.62002 8.10523C3.56454 8.17404 3.53355 8.25936 3.53192 8.34774V12.2593C3.53192 12.3644 3.57365 12.4651 3.64793 12.5394C3.7222 12.6137 3.82295 12.6554 3.92799 12.6554C4.03304 12.6554 4.13378 12.6137 4.20806 12.5394C4.28234 12.4651 4.32406 12.3644 4.32406 12.2593V10.0255L5.53011 12.4368C5.57123 12.5149 5.63715 12.5771 5.71749 12.6136C5.79783 12.6502 5.88803 12.659 5.97392 12.6387C6.05981 12.6183 6.13651 12.5701 6.19196 12.5014C6.24742 12.4327 6.27848 12.3476 6.28027 12.2593L6.27987 8.34774C6.27987 8.24269 6.23814 8.14195 6.16386 8.06767C6.08959 7.99339 5.98884 7.95167 5.8838 7.95167ZM9.7966 8.74381C9.90164 8.74381 10.0024 8.70208 10.0767 8.6278C10.1509 8.55353 10.1927 8.45278 10.1927 8.34774C10.1927 8.24269 10.1509 8.14195 10.0767 8.06767C10.0024 7.99339 9.90164 7.95167 9.7966 7.95167H7.84C7.73495 7.95167 7.63421 7.99339 7.55993 8.06767C7.48566 8.14195 7.44393 8.24269 7.44393 8.34774V12.2597C7.44393 12.3648 7.48566 12.4655 7.55993 12.5398C7.63421 12.6141 7.73495 12.6558 7.84 12.6558H9.7966C9.90164 12.6558 10.0024 12.6141 10.0767 12.5398C10.1509 12.4655 10.1927 12.3648 10.1927 12.2597C10.1927 12.1547 10.1509 12.054 10.0767 11.9797C10.0024 11.9054 9.90164 11.8637 9.7966 11.8637H8.23607V10.6996H9.7966C9.90164 10.6996 10.0024 10.6579 10.0767 10.5836C10.1509 10.5093 10.1927 10.4086 10.1927 10.3035C10.1927 10.1985 10.1509 10.0978 10.0767 10.0235C10.0024 9.9492 9.90164 9.90747 9.7966 9.90747H8.23607V8.74381H9.7966ZM15.7575 7.96276C15.7069 7.95053 15.6545 7.94839 15.6031 7.95644C15.5517 7.9645 15.5024 7.98259 15.458 8.0097C15.4136 8.0368 15.375 8.07239 15.3444 8.11442C15.3137 8.15645 15.2916 8.2041 15.2794 8.25466L14.7075 10.6263L14.092 8.24832C14.0684 8.16573 14.0188 8.09295 13.9505 8.04083C13.8822 7.98871 13.7989 7.96002 13.713 7.95904C13.6271 7.95806 13.5432 7.98484 13.4738 8.0354C13.4043 8.08595 13.3531 8.15757 13.3276 8.23961L12.6511 10.6256L12.1398 8.26377C12.1175 8.16104 12.0554 8.07134 11.9671 8.0144C11.8787 7.95747 11.7714 7.93796 11.6686 7.96018C11.5659 7.9824 11.4762 8.04452 11.4193 8.13287C11.3623 8.22122 11.3428 8.32858 11.365 8.43131L12.2126 12.3433C12.2329 12.4284 12.2805 12.5044 12.3482 12.5597C12.416 12.615 12.5 12.6464 12.5874 12.6491C12.6748 12.6519 12.7606 12.6258 12.8317 12.5749C12.9028 12.524 12.9551 12.4511 12.9806 12.3675L13.6912 9.86073L14.338 12.3588C14.3618 12.4427 14.4125 12.5165 14.4824 12.5689C14.5522 12.6212 14.6373 12.6492 14.7246 12.6484C14.8118 12.6477 14.8965 12.6184 14.9654 12.5649C15.0344 12.5114 15.0839 12.4368 15.1063 12.3524L16.0498 8.44042C16.062 8.38984 16.0641 8.33734 16.0561 8.28593C16.048 8.23453 16.0298 8.18522 16.0027 8.14082C15.9756 8.09642 15.9399 8.05781 15.8979 8.02719C15.8558 7.99657 15.8081 7.97494 15.7575 7.96276ZM18.6948 7.95167C18.496 7.92755 18.2943 7.94898 18.105 8.01432C17.9157 8.07967 17.7438 8.18722 17.6022 8.32884C17.4606 8.47045 17.3531 8.64242 17.2878 8.83173C17.2225 9.02103 17.2012 9.22271 17.2253 9.42149C17.2279 9.60526 17.2691 9.78642 17.3464 9.95315C17.4238 10.1199 17.5354 10.2684 17.6741 10.389C17.8127 10.5097 17.9752 10.5997 18.1511 10.6532C18.3269 10.7067 18.512 10.7225 18.6944 10.6996C19.0726 10.706 19.2203 11.041 19.1803 11.3777C19.1736 11.7552 18.8389 11.9037 18.5023 11.8633C18.3735 11.8632 18.25 11.812 18.1589 11.721C18.0678 11.6299 18.0165 11.5065 18.0163 11.3777C18.0163 11.2726 17.9746 11.1719 17.9003 11.0976C17.826 11.0233 17.7253 10.9816 17.6202 10.9816C17.5152 10.9816 17.4144 11.0233 17.3402 11.0976C17.2659 11.1719 17.2241 11.2726 17.2241 11.3777C17.2267 11.5615 17.268 11.7428 17.3455 11.9095C17.4229 12.0763 17.5346 12.2249 17.6734 12.3455C17.8122 12.4661 17.9749 12.556 18.1508 12.6094C18.3267 12.6629 18.512 12.6785 18.6944 12.6554C20.4018 12.6408 20.4014 9.92213 18.6944 9.90747C18.3577 9.94708 18.0234 9.79934 18.0171 9.42149V9.2294C18.0234 8.85194 18.3577 8.70341 18.6944 8.74381C18.8232 8.74392 18.9466 8.7951 19.0377 8.88613C19.1289 8.97716 19.1801 9.10061 19.1803 9.2294C19.1715 9.28655 19.1751 9.34495 19.1909 9.40059C19.2067 9.45622 19.2344 9.50777 19.272 9.5517C19.3096 9.59563 19.3563 9.63089 19.4089 9.65507C19.4614 9.67925 19.5186 9.69176 19.5764 9.69176C19.6343 9.69176 19.6914 9.67925 19.744 9.65507C19.7965 9.63089 19.8432 9.59563 19.8808 9.5517C19.9185 9.50777 19.9461 9.45622 19.962 9.40059C19.9778 9.34495 19.9814 9.28655 19.9725 9.2294C19.9721 8.89058 19.8373 8.56577 19.5976 8.32623C19.358 8.08669 19.0336 7.95198 18.6948 7.95167Z" fill="#5000FF"/>
<defs>
<linearGradient id="paint0_linear_92_14" x1="11.7524" y1="0.3815" x2="11.7524" y2="20.2256" gradientUnits="userSpaceOnUse">
<stop stop-color="#5214FF"/>
<stop offset="1" stop-color="#791FFC"/>
</linearGradient>
</defs>
</svg>
