<svg width="24" height="24" viewBox="0 0 24 24" fill="none" xmlns="http://www.w3.org/2000/svg">
<mask id="mask0_108_95" style="mask-type:alpha" maskUnits="userSpaceOnUse" x="0" y="0" width="24" height="23">
<path d="M22.4008 7.20005H15.964C15.8499 7.2001 15.7371 7.17574 15.6332 7.12862C15.5293 7.0815 15.4367 7.01271 15.3616 6.92685L12.8008 4.00005L15.3608 1.07325C15.436 0.98729 15.5287 0.918433 15.6328 0.87131C15.7368 0.824186 15.8498 0.799888 15.964 0.80005H22.4008C22.613 0.80005 22.8164 0.884335 22.9665 1.03436C23.1165 1.18439 23.2008 1.38788 23.2008 1.60005V6.40005C23.2008 6.61222 23.1165 6.81571 22.9665 6.96573C22.8164 7.11576 22.613 7.20005 22.4008 7.20005Z" fill="#38D6D2"/>
<path d="M22.4008 17.6H15.964C15.8499 17.6 15.7371 17.5756 15.6332 17.5285C15.5293 17.4814 15.4367 17.4126 15.3616 17.3268L12.8008 14.4L15.3608 11.4732C15.436 11.3872 15.5287 11.3183 15.6328 11.2712C15.7368 11.2241 15.8498 11.1998 15.964 11.2H22.4008C22.613 11.2 22.8164 11.2842 22.9665 11.4343C23.1165 11.5843 23.2008 11.7878 23.2008 12V16.8C23.2008 17.0121 23.1165 17.2156 22.9665 17.3656C22.8164 17.5157 22.613 17.6 22.4008 17.6Z" fill="#38D6D2"/>
<path d="M0.8 12.4H7.2368C7.35088 12.4 7.46366 12.3757 7.56756 12.3286C7.67146 12.2815 7.76408 12.2127 7.8392 12.1268L10.4 9.2L7.84 6.2732C7.76479 6.18724 7.67204 6.11838 7.56799 6.07126C7.46395 6.02414 7.35102 5.99984 7.2368 6H0.8C0.587827 6 0.384344 6.08429 0.234315 6.23432C0.0842855 6.38434 0 6.58783 0 6.8V11.6C0 11.8122 0.0842855 12.0157 0.234315 12.1657C0.384344 12.3157 0.587827 12.4 0.8 12.4Z" fill="#38D6D2"/>
<path d="M0.8 22.7999H7.2368C7.35088 22.8 7.46366 22.7756 7.56756 22.7285C7.67146 22.6814 7.76408 22.6126 7.8392 22.5267L10.4 19.5999L7.84 16.6731C7.76479 16.5871 7.67204 16.5183 7.56799 16.4712C7.46395 16.424 7.35102 16.3997 7.2368 16.3999H0.8C0.587827 16.3999 0.384344 16.4842 0.234315 16.6342C0.0842855 16.7842 0 16.9877 0 17.1999V21.9999C0 22.2121 0.0842855 22.4156 0.234315 22.5656C0.384344 22.7156 0.587827 22.7999 0.8 22.7999Z" fill="#38D6D2"/>
</mask>
<g mask="url(#mask0_108_95)">
<path d="M24.8359 0.0690918H-1.26953V23.3282H24.8359V0.0690918Z" fill="url(#paint0_linear_108_95)"/>
</g>
<path d="M11.6012 24C11.4951 24 11.3933 23.9579 11.3183 23.8828C11.2433 23.8078 11.2012 23.7061 11.2012 23.6V0.4C11.2012 0.293913 11.2433 0.192172 11.3183 0.117157C11.3933 0.0421427 11.4951 0 11.6012 0C11.7073 0 11.809 0.0421427 11.884 0.117157C11.959 0.192172 12.0012 0.293913 12.0012 0.4V23.6C12.0012 23.7061 11.959 23.8078 11.884 23.8828C11.809 23.9579 11.7073 24 11.6012 24Z" fill="#5B17FF"/>
<path d="M11.6023 20.8001C12.2651 20.8001 12.8023 20.2629 12.8023 19.6001C12.8023 18.9374 12.2651 18.4001 11.6023 18.4001C10.9396 18.4001 10.4023 18.9374 10.4023 19.6001C10.4023 20.2629 10.9396 20.8001 11.6023 20.8001Z" fill="#FCB544"/>
<path d="M11.6023 15.6C12.2651 15.6 12.8023 15.0627 12.8023 14.4C12.8023 13.7372 12.2651 13.2 11.6023 13.2C10.9396 13.2 10.4023 13.7372 10.4023 14.4C10.4023 15.0627 10.9396 15.6 11.6023 15.6Z" fill="#38D6D2"/>
<path d="M11.6023 10.4C12.2651 10.4 12.8023 9.86274 12.8023 9.2C12.8023 8.53726 12.2651 8 11.6023 8C10.9396 8 10.4023 8.53726 10.4023 9.2C10.4023 9.86274 10.9396 10.4 11.6023 10.4Z" fill="#F84861"/>
<path d="M11.6023 5.20005C12.2651 5.20005 12.8023 4.66279 12.8023 4.00005C12.8023 3.33731 12.2651 2.80005 11.6023 2.80005C10.9396 2.80005 10.4023 3.33731 10.4023 4.00005C10.4023 4.66279 10.9396 5.20005 11.6023 5.20005Z" fill="#1169D3"/>
<path d="M16.8012 3.60005H16.4012C16.2951 3.60005 16.1933 3.55791 16.1183 3.48289C16.0433 3.40788 16.0012 3.30614 16.0012 3.20005C16.0012 3.09396 16.0433 2.99222 16.1183 2.91721C16.1933 2.84219 16.2951 2.80005 16.4012 2.80005H16.8012C16.9073 2.80005 17.009 2.84219 17.084 2.91721C17.159 2.99222 17.2012 3.09396 17.2012 3.20005C17.2012 3.30614 17.159 3.40788 17.084 3.48289C17.009 3.55791 16.9073 3.60005 16.8012 3.60005ZM21.6012 3.60005H18.4012C18.2951 3.60005 18.1933 3.55791 18.1183 3.48289C18.0433 3.40788 18.0012 3.30614 18.0012 3.20005C18.0012 3.09396 18.0433 2.99222 18.1183 2.91721C18.1933 2.84219 18.2951 2.80005 18.4012 2.80005H21.6012C21.7073 2.80005 21.809 2.84219 21.884 2.91721C21.959 2.99222 22.0012 3.09396 22.0012 3.20005C22.0012 3.30614 21.959 3.40788 21.884 3.48289C21.809 3.55791 21.7073 3.60005 21.6012 3.60005ZM19.6012 5.20005H16.4012C16.2951 5.20005 16.1933 5.15791 16.1183 5.08289C16.0433 5.00788 16.0012 4.90614 16.0012 4.80005C16.0012 4.69396 16.0433 4.59222 16.1183 4.51721C16.1933 4.44219 16.2951 4.40005 16.4012 4.40005H19.6012C19.7073 4.40005 19.809 4.44219 19.884 4.51721C19.959 4.59222 20.0012 4.69396 20.0012 4.80005C20.0012 4.90614 19.959 5.00788 19.884 5.08289C19.809 5.15791 19.7073 5.20005 19.6012 5.20005ZM16.8012 14H16.4012C16.2951 14 16.1933 13.9579 16.1183 13.8829C16.0433 13.8079 16.0012 13.7061 16.0012 13.6C16.0012 13.494 16.0433 13.3922 16.1183 13.3172C16.1933 13.2422 16.2951 13.2 16.4012 13.2H16.8012C16.9073 13.2 17.009 13.2422 17.084 13.3172C17.159 13.3922 17.2012 13.494 17.2012 13.6C17.2012 13.7061 17.159 13.8079 17.084 13.8829C17.009 13.9579 16.9073 14 16.8012 14ZM21.6012 14H18.4012C18.2951 14 18.1933 13.9579 18.1183 13.8829C18.0433 13.8079 18.0012 13.7061 18.0012 13.6C18.0012 13.494 18.0433 13.3922 18.1183 13.3172C18.1933 13.2422 18.2951 13.2 18.4012 13.2H21.6012C21.7073 13.2 21.809 13.2422 21.884 13.3172C21.959 13.3922 22.0012 13.494 22.0012 13.6C22.0012 13.7061 21.959 13.8079 21.884 13.8829C21.809 13.9579 21.7073 14 21.6012 14ZM19.6012 15.6H16.4012C16.2951 15.6 16.1933 15.5579 16.1183 15.4829C16.0433 15.4079 16.0012 15.3061 16.0012 15.2C16.0012 15.094 16.0433 14.9922 16.1183 14.9172C16.1933 14.8422 16.2951 14.8 16.4012 14.8H19.6012C19.7073 14.8 19.809 14.8422 19.884 14.9172C19.959 14.9922 20.0012 15.094 20.0012 15.2C20.0012 15.3061 19.959 15.4079 19.884 15.4829C19.809 15.5579 19.7073 15.6 19.6012 15.6ZM2.00117 8.80005H1.60117C1.49509 8.80005 1.39334 8.75791 1.31833 8.68289C1.24331 8.60788 1.20117 8.50614 1.20117 8.40005C1.20117 8.29396 1.24331 8.19222 1.31833 8.11721C1.39334 8.04219 1.49509 8.00005 1.60117 8.00005H2.00117C2.10726 8.00005 2.209 8.04219 2.28401 8.11721C2.35903 8.19222 2.40117 8.29396 2.40117 8.40005C2.40117 8.50614 2.35903 8.60788 2.28401 8.68289C2.209 8.75791 2.10726 8.80005 2.00117 8.80005ZM6.80117 8.80005H3.60117C3.49509 8.80005 3.39334 8.75791 3.31833 8.68289C3.24331 8.60788 3.20117 8.50614 3.20117 8.40005C3.20117 8.29396 3.24331 8.19222 3.31833 8.11721C3.39334 8.04219 3.49509 8.00005 3.60117 8.00005H6.80117C6.90726 8.00005 7.009 8.04219 7.08402 8.11721C7.15903 8.19222 7.20117 8.29396 7.20117 8.40005C7.20117 8.50614 7.15903 8.60788 7.08402 8.68289C7.009 8.75791 6.90726 8.80005 6.80117 8.80005ZM4.80117 10.4H1.60117C1.49509 10.4 1.39334 10.3579 1.31833 10.2829C1.24331 10.2079 1.20117 10.1061 1.20117 10C1.20117 9.89396 1.24331 9.79222 1.31833 9.71721C1.39334 9.64219 1.49509 9.60005 1.60117 9.60005H4.80117C4.90726 9.60005 5.009 9.64219 5.08401 9.71721C5.15903 9.79222 5.20117 9.89396 5.20117 10C5.20117 10.1061 5.15903 10.2079 5.08401 10.2829C5.009 10.3579 4.90726 10.4 4.80117 10.4ZM2.00117 19.2001H1.60117C1.49509 19.2001 1.39334 19.1579 1.31833 19.0829C1.24331 19.0079 1.20117 18.9061 1.20117 18.8001C1.20117 18.694 1.24331 18.5922 1.31833 18.5172C1.39334 18.4422 1.49509 18.4001 1.60117 18.4001H2.00117C2.10726 18.4001 2.209 18.4422 2.28401 18.5172C2.35903 18.5922 2.40117 18.694 2.40117 18.8001C2.40117 18.9061 2.35903 19.0079 2.28401 19.0829C2.209 19.1579 2.10726 19.2001 2.00117 19.2001ZM6.80117 19.2001H3.60117C3.49509 19.2001 3.39334 19.1579 3.31833 19.0829C3.24331 19.0079 3.20117 18.9061 3.20117 18.8001C3.20117 18.694 3.24331 18.5922 3.31833 18.5172C3.39334 18.4422 3.49509 18.4001 3.60117 18.4001H6.80117C6.90726 18.4001 7.009 18.4422 7.08402 18.5172C7.15903 18.5922 7.20117 18.694 7.20117 18.8001C7.20117 18.9061 7.15903 19.0079 7.08402 19.0829C7.009 19.1579 6.90726 19.2001 6.80117 19.2001ZM4.80117 20.8001H1.60117C1.49509 20.8001 1.39334 20.7579 1.31833 20.6829C1.24331 20.6079 1.20117 20.5061 1.20117 20.4001C1.20117 20.294 1.24331 20.1922 1.31833 20.1172C1.39334 20.0422 1.49509 20.0001 1.60117 20.0001H4.80117C4.90726 20.0001 5.009 20.0422 5.08401 20.1172C5.15903 20.1922 5.20117 20.294 5.20117 20.4001C5.20117 20.5061 5.15903 20.6079 5.08401 20.6829C5.009 20.7579 4.90726 20.8001 4.80117 20.8001Z" fill="white"/>
<defs>
<linearGradient id="paint0_linear_108_95" x1="24.8358" y1="0.069083" x2="-0.841316" y2="22.3668" gradientUnits="userSpaceOnUse">
<stop stop-color="#4F13FF"/>
<stop offset="1" stop-color="#7A1FFC"/>
</linearGradient>
</defs>
</svg>
